<svg width="14" height="14" viewBox="0 0 14 14" fill="none" xmlns="http://www.w3.org/2000/svg">
<path d="M12.3233 3.5336L12.1504 6.55966C11.9972 9.24165 10.5636 11.6865 8.29771 13.1297L6.94821 13.9894L6.93153 14L6.91491 13.9894L5.56554 13.1297C3.29968 11.6865 1.86614 9.24165 1.71274 6.55966L1.53998 3.5336L6.91491 0.0109934L6.93153 0L6.94821 0.0109934L12.3233 3.5336Z" fill="#1CC16E"/>
<path fill-rule="evenodd" clip-rule="evenodd" d="M12.1504 6.55966L12.3233 3.5336L6.94821 0.0109934L6.93153 0L6.91491 0.0109934L1.53998 3.5336L1.71274 6.55966C1.86614 9.24165 3.29968 11.6865 5.56554 13.1297L6.93153 14L8.29771 13.1297C10.5636 11.6865 11.9972 9.24165 12.1504 6.55966ZM6.93157 13.224L7.94607 12.5777C10.0344 11.2475 11.3558 8.99422 11.4969 6.52235L11.6483 3.87376L6.93156 0.782601L2.21496 3.87376L2.36616 6.52229C2.36616 6.52228 2.36616 6.52231 2.36616 6.52229C2.50756 8.9942 3.82882 11.2475 5.91715 12.5777L6.93157 13.224Z" fill="#26DE81"/>
<path d="M4.29846 6.89378L4.783 6.33856L6.57723 7.90441L9.35746 5.15869L9.87531 5.68292L6.60815 8.90953L4.29846 6.89378Z" fill="white"/>
</svg>
